<?xml version="1.0" encoding="UTF-8" standalone="no"?>
<!DOCTYPE svg PUBLIC "-//W3C//DTD SVG 1.1//EN"
 "http://www.w3.org/Graphics/SVG/1.1/DTD/svg11.dtd">
<!-- Generated by graphviz version 2.47.3 (20210619.1520)
 -->
<!-- Title: dependencies Pages: 1 -->
<svg width="404pt" height="174pt"
 viewBox="0.00 0.00 404.00 173.80" xmlns="http://www.w3.org/2000/svg" xmlns:xlink="http://www.w3.org/1999/xlink">
<g id="graph0" class="graph" transform="scale(1 1) rotate(0) translate(4 169.8)">
<title>dependencies</title>
<polygon fill="white" stroke="transparent" points="-4,4 -4,-169.8 400,-169.8 400,4 -4,4"/>
<text text-anchor="middle" x="198" y="-8.2" font-family="sans-serif" font-size="14.00">dependencies</text>
<g id="clust1" class="cluster">
<title>cluster_RegistrationModule</title>
<polygon fill="none" stroke="black" stroke-dasharray="1,5" points="8,-32.8 8,-157.8 388,-157.8 388,-32.8 8,-32.8"/>
</g>
<g id="clust4" class="cluster">
<title>cluster_RegistrationModule_imports</title>
<polygon fill="none" stroke="black" points="190,-40.8 190,-92.8 380,-92.8 380,-40.8 190,-40.8"/>
</g>
<g id="clust2" class="cluster">
<title>cluster_RegistrationModule_declarations</title>
<polygon fill="none" stroke="black" points="16,-40.8 16,-92.8 182,-92.8 182,-40.8 16,-40.8"/>
</g>
<!-- RegistrationComponent -->
<g id="node1" class="node">
<title>RegistrationComponent</title>
<polygon fill="#ffffb3" stroke="black" points="173.77,-84.8 24.23,-84.8 24.23,-48.8 173.77,-48.8 173.77,-84.8"/>
<text text-anchor="middle" x="99" y="-62.6" font-family="Times,serif" font-size="14.00">RegistrationComponent</text>
</g>
<!-- RegistrationModule -->
<g id="node2" class="node">
<title>RegistrationModule</title>
<polygon fill="#8dd3c7" stroke="black" points="255.98,-149.8 252.98,-153.8 231.98,-153.8 228.98,-149.8 128.02,-149.8 128.02,-113.8 255.98,-113.8 255.98,-149.8"/>
<text text-anchor="middle" x="192" y="-127.6" font-family="Times,serif" font-size="14.00">RegistrationModule</text>
</g>
<!-- RegistrationComponent&#45;&gt;RegistrationModule -->
<g id="edge1" class="edge">
<title>RegistrationComponent&#45;&gt;RegistrationModule</title>
<path fill="none" stroke="black" d="M150.95,-84.91C150.95,-84.91 150.95,-103.79 150.95,-103.79"/>
<polygon fill="black" stroke="black" points="147.45,-103.79 150.95,-113.79 154.45,-103.79 147.45,-103.79"/>
</g>
<!-- RegistrationRoutingModule -->
<g id="node3" class="node">
<title>RegistrationRoutingModule</title>
<polygon fill="#8dd3c7" stroke="black" points="371.6,-84.8 368.6,-88.8 347.6,-88.8 344.6,-84.8 198.4,-84.8 198.4,-48.8 371.6,-48.8 371.6,-84.8"/>
<text text-anchor="middle" x="285" y="-62.6" font-family="Times,serif" font-size="14.00">RegistrationRoutingModule</text>
</g>
<!-- RegistrationRoutingModule&#45;&gt;RegistrationModule -->
<g id="edge2" class="edge">
<title>RegistrationRoutingModule&#45;&gt;RegistrationModule</title>
<path fill="none" stroke="black" d="M227.22,-84.91C227.22,-84.91 227.22,-103.79 227.22,-103.79"/>
<polygon fill="black" stroke="black" points="223.72,-103.79 227.22,-113.79 230.72,-103.79 223.72,-103.79"/>
</g>
</g>
</svg>
