<?xml version="1.0" encoding="UTF-8" standalone="no"?>
<!DOCTYPE svg PUBLIC "-//W3C//DTD SVG 1.1//EN"
 "http://www.w3.org/Graphics/SVG/1.1/DTD/svg11.dtd">
<!-- Generated by graphviz version 2.47.3 (20210619.1520)
 -->
<!-- Title: dependencies Pages: 1 -->
<svg width="368pt" height="174pt"
 viewBox="0.00 0.00 368.00 173.80" xmlns="http://www.w3.org/2000/svg" xmlns:xlink="http://www.w3.org/1999/xlink">
<g id="graph0" class="graph" transform="scale(1 1) rotate(0) translate(4 169.8)">
<title>dependencies</title>
<polygon fill="white" stroke="transparent" points="-4,4 -4,-169.8 364,-169.8 364,4 -4,4"/>
<text text-anchor="middle" x="180" y="-8.2" font-family="sans-serif" font-size="14.00">dependencies</text>
<g id="clust1" class="cluster">
<title>cluster_WcstStatModule</title>
<polygon fill="none" stroke="black" stroke-dasharray="1,5" points="8,-32.8 8,-157.8 352,-157.8 352,-32.8 8,-32.8"/>
</g>
<g id="clust4" class="cluster">
<title>cluster_WcstStatModule_imports</title>
<polygon fill="none" stroke="black" points="172,-40.8 172,-92.8 344,-92.8 344,-40.8 172,-40.8"/>
</g>
<g id="clust2" class="cluster">
<title>cluster_WcstStatModule_declarations</title>
<polygon fill="none" stroke="black" points="16,-40.8 16,-92.8 164,-92.8 164,-40.8 16,-40.8"/>
</g>
<!-- WcstStatComponent -->
<g id="node1" class="node">
<title>WcstStatComponent</title>
<polygon fill="#ffffb3" stroke="black" points="155.88,-84.8 24.12,-84.8 24.12,-48.8 155.88,-48.8 155.88,-84.8"/>
<text text-anchor="middle" x="90" y="-62.6" font-family="Times,serif" font-size="14.00">WcstStatComponent</text>
</g>
<!-- WcstStatModule -->
<g id="node2" class="node">
<title>WcstStatModule</title>
<polygon fill="#8dd3c7" stroke="black" points="229.09,-149.8 226.09,-153.8 205.09,-153.8 202.09,-149.8 118.91,-149.8 118.91,-113.8 229.09,-113.8 229.09,-149.8"/>
<text text-anchor="middle" x="174" y="-127.6" font-family="Times,serif" font-size="14.00">WcstStatModule</text>
</g>
<!-- WcstStatComponent&#45;&gt;WcstStatModule -->
<g id="edge1" class="edge">
<title>WcstStatComponent&#45;&gt;WcstStatModule</title>
<path fill="none" stroke="black" d="M137.45,-84.91C137.45,-84.91 137.45,-103.79 137.45,-103.79"/>
<polygon fill="black" stroke="black" points="133.95,-103.79 137.45,-113.79 140.95,-103.79 133.95,-103.79"/>
</g>
<!-- WcstStatRoutingModule -->
<g id="node3" class="node">
<title>WcstStatRoutingModule</title>
<polygon fill="#8dd3c7" stroke="black" points="335.71,-84.8 332.71,-88.8 311.71,-88.8 308.71,-84.8 180.29,-84.8 180.29,-48.8 335.71,-48.8 335.71,-84.8"/>
<text text-anchor="middle" x="258" y="-62.6" font-family="Times,serif" font-size="14.00">WcstStatRoutingModule</text>
</g>
<!-- WcstStatRoutingModule&#45;&gt;WcstStatModule -->
<g id="edge2" class="edge">
<title>WcstStatRoutingModule&#45;&gt;WcstStatModule</title>
<path fill="none" stroke="black" d="M204.72,-84.91C204.72,-84.91 204.72,-103.79 204.72,-103.79"/>
<polygon fill="black" stroke="black" points="201.22,-103.79 204.72,-113.79 208.22,-103.79 201.22,-103.79"/>
</g>
</g>
</svg>
