<?xml version="1.0" encoding="UTF-8" standalone="no"?>
<!DOCTYPE svg PUBLIC "-//W3C//DTD SVG 1.1//EN"
 "http://www.w3.org/Graphics/SVG/1.1/DTD/svg11.dtd">
<!-- Generated by graphviz version 2.47.3 (20210619.1520)
 -->
<!-- Title: dependencies Pages: 1 -->
<svg width="366pt" height="174pt"
 viewBox="0.00 0.00 366.00 173.80" xmlns="http://www.w3.org/2000/svg" xmlns:xlink="http://www.w3.org/1999/xlink">
<g id="graph0" class="graph" transform="scale(1 1) rotate(0) translate(4 169.8)">
<title>dependencies</title>
<polygon fill="white" stroke="transparent" points="-4,4 -4,-169.8 362,-169.8 362,4 -4,4"/>
<text text-anchor="middle" x="179" y="-8.2" font-family="sans-serif" font-size="14.00">dependencies</text>
<g id="clust1" class="cluster">
<title>cluster_IowaStatModule</title>
<polygon fill="none" stroke="black" stroke-dasharray="1,5" points="8,-32.8 8,-157.8 350,-157.8 350,-32.8 8,-32.8"/>
</g>
<g id="clust4" class="cluster">
<title>cluster_IowaStatModule_imports</title>
<polygon fill="none" stroke="black" points="172,-40.8 172,-92.8 342,-92.8 342,-40.8 172,-40.8"/>
</g>
<g id="clust2" class="cluster">
<title>cluster_IowaStatModule_declarations</title>
<polygon fill="none" stroke="black" points="16,-40.8 16,-92.8 164,-92.8 164,-40.8 16,-40.8"/>
</g>
<!-- IowaStatComponent -->
<g id="node1" class="node">
<title>IowaStatComponent</title>
<polygon fill="#ffffb3" stroke="black" points="155.59,-84.8 24.41,-84.8 24.41,-48.8 155.59,-48.8 155.59,-84.8"/>
<text text-anchor="middle" x="90" y="-62.6" font-family="Times,serif" font-size="14.00">IowaStatComponent</text>
</g>
<!-- IowaStatModule -->
<g id="node2" class="node">
<title>IowaStatModule</title>
<polygon fill="#8dd3c7" stroke="black" points="227.81,-149.8 224.81,-153.8 203.81,-153.8 200.81,-149.8 118.19,-149.8 118.19,-113.8 227.81,-113.8 227.81,-149.8"/>
<text text-anchor="middle" x="173" y="-127.6" font-family="Times,serif" font-size="14.00">IowaStatModule</text>
</g>
<!-- IowaStatComponent&#45;&gt;IowaStatModule -->
<g id="edge1" class="edge">
<title>IowaStatComponent&#45;&gt;IowaStatModule</title>
<path fill="none" stroke="black" d="M136.95,-84.91C136.95,-84.91 136.95,-103.79 136.95,-103.79"/>
<polygon fill="black" stroke="black" points="133.45,-103.79 136.95,-113.79 140.45,-103.79 133.45,-103.79"/>
</g>
<!-- IowaStatRoutingModule -->
<g id="node3" class="node">
<title>IowaStatRoutingModule</title>
<polygon fill="#8dd3c7" stroke="black" points="334.43,-84.8 331.43,-88.8 310.43,-88.8 307.43,-84.8 179.57,-84.8 179.57,-48.8 334.43,-48.8 334.43,-84.8"/>
<text text-anchor="middle" x="257" y="-62.6" font-family="Times,serif" font-size="14.00">IowaStatRoutingModule</text>
</g>
<!-- IowaStatRoutingModule&#45;&gt;IowaStatModule -->
<g id="edge2" class="edge">
<title>IowaStatRoutingModule&#45;&gt;IowaStatModule</title>
<path fill="none" stroke="black" d="M203.72,-84.91C203.72,-84.91 203.72,-103.79 203.72,-103.79"/>
<polygon fill="black" stroke="black" points="200.22,-103.79 203.72,-113.79 207.22,-103.79 200.22,-103.79"/>
</g>
</g>
</svg>
