<?xml version="1.0" encoding="UTF-8" standalone="no"?>
<!DOCTYPE svg PUBLIC "-//W3C//DTD SVG 1.1//EN"
 "http://www.w3.org/Graphics/SVG/1.1/DTD/svg11.dtd">
<!-- Generated by graphviz version 2.47.3 (20210619.1520)
 -->
<!-- Title: dependencies Pages: 1 -->
<svg width="364pt" height="247pt"
 viewBox="0.00 0.00 364.00 246.80" xmlns="http://www.w3.org/2000/svg" xmlns:xlink="http://www.w3.org/1999/xlink">
<g id="graph0" class="graph" transform="scale(1 1) rotate(0) translate(4 242.8)">
<title>dependencies</title>
<polygon fill="white" stroke="transparent" points="-4,4 -4,-242.8 360,-242.8 360,4 -4,4"/>
<text text-anchor="middle" x="178" y="-8.2" font-family="sans-serif" font-size="14.00">dependencies</text>
<g id="clust1" class="cluster">
<title>cluster_StatisticsModule</title>
<polygon fill="none" stroke="black" stroke-dasharray="1,5" points="8,-32.8 8,-230.8 348,-230.8 348,-32.8 8,-32.8"/>
</g>
<g id="clust2" class="cluster">
<title>cluster_StatisticsModule_declarations</title>
<polygon fill="none" stroke="black" points="192,-40.8 192,-92.8 340,-92.8 340,-40.8 192,-40.8"/>
</g>
<g id="clust4" class="cluster">
<title>cluster_StatisticsModule_imports</title>
<polygon fill="none" stroke="black" points="16,-40.8 16,-92.8 184,-92.8 184,-40.8 16,-40.8"/>
</g>
<g id="clust5" class="cluster">
<title>cluster_StatisticsModule_exports</title>
<polygon fill="none" stroke="black" points="106,-170.8 106,-222.8 258,-222.8 258,-170.8 106,-170.8"/>
</g>
<!-- StatisticsComponent -->
<g id="node1" class="node">
<title>StatisticsComponent</title>
<polygon fill="#ffffb3" stroke="black" points="331.89,-84.8 200.11,-84.8 200.11,-48.8 331.89,-48.8 331.89,-84.8"/>
<text text-anchor="middle" x="266" y="-62.6" font-family="Times,serif" font-size="14.00">StatisticsComponent</text>
</g>
<!-- StatisticsModule -->
<g id="node2" class="node">
<title>StatisticsModule</title>
<polygon fill="#8dd3c7" stroke="black" points="237.1,-149.8 234.1,-153.8 213.1,-153.8 210.1,-149.8 126.9,-149.8 126.9,-113.8 237.1,-113.8 237.1,-149.8"/>
<text text-anchor="middle" x="182" y="-127.6" font-family="Times,serif" font-size="14.00">StatisticsModule</text>
</g>
<!-- StatisticsComponent&#45;&gt;StatisticsModule -->
<g id="edge1" class="edge">
<title>StatisticsComponent&#45;&gt;StatisticsModule</title>
<path fill="none" stroke="black" d="M218.55,-84.91C218.55,-84.91 218.55,-103.79 218.55,-103.79"/>
<polygon fill="black" stroke="black" points="215.05,-103.79 218.55,-113.79 222.05,-103.79 215.05,-103.79"/>
</g>
<!-- StatisticsComponent  -->
<g id="node4" class="node">
<title>StatisticsComponent </title>
<polygon fill="#fb8072" stroke="black" points="249.89,-214.8 114.11,-214.8 114.11,-178.8 249.89,-178.8 249.89,-214.8"/>
<text text-anchor="middle" x="182" y="-192.6" font-family="Times,serif" font-size="14.00">StatisticsComponent </text>
</g>
<!-- StatisticsModule&#45;&gt;StatisticsComponent  -->
<g id="edge3" class="edge">
<title>StatisticsModule&#45;&gt;StatisticsComponent </title>
<path fill="none" stroke="black" stroke-dasharray="5,2" d="M182,-149.91C182,-149.91 182,-168.79 182,-168.79"/>
<polygon fill="black" stroke="black" points="178.5,-168.79 182,-178.79 185.5,-168.79 178.5,-168.79"/>
</g>
<!-- StatsticsRoutingModule -->
<g id="node3" class="node">
<title>StatsticsRoutingModule</title>
<polygon fill="#8dd3c7" stroke="black" points="175.83,-84.8 172.83,-88.8 151.83,-88.8 148.83,-84.8 24.17,-84.8 24.17,-48.8 175.83,-48.8 175.83,-84.8"/>
<text text-anchor="middle" x="100" y="-62.6" font-family="Times,serif" font-size="14.00">StatsticsRoutingModule</text>
</g>
<!-- StatsticsRoutingModule&#45;&gt;StatisticsModule -->
<g id="edge2" class="edge">
<title>StatsticsRoutingModule&#45;&gt;StatisticsModule</title>
<path fill="none" stroke="black" d="M151.31,-84.91C151.31,-84.91 151.31,-103.79 151.31,-103.79"/>
<polygon fill="black" stroke="black" points="147.81,-103.79 151.31,-113.79 154.81,-103.79 147.81,-103.79"/>
</g>
</g>
</svg>
