<?xml version="1.0" encoding="UTF-8" standalone="no"?>
<!DOCTYPE svg PUBLIC "-//W3C//DTD SVG 1.1//EN"
 "http://www.w3.org/Graphics/SVG/1.1/DTD/svg11.dtd">
<!-- Generated by graphviz version 2.47.3 (20210619.1520)
 -->
<!-- Title: dependencies Pages: 1 -->
<svg width="358pt" height="174pt"
 viewBox="0.00 0.00 358.00 173.80" xmlns="http://www.w3.org/2000/svg" xmlns:xlink="http://www.w3.org/1999/xlink">
<g id="graph0" class="graph" transform="scale(1 1) rotate(0) translate(4 169.8)">
<title>dependencies</title>
<polygon fill="white" stroke="transparent" points="-4,4 -4,-169.8 354,-169.8 354,4 -4,4"/>
<text text-anchor="middle" x="175" y="-8.2" font-family="sans-serif" font-size="14.00">dependencies</text>
<g id="clust1" class="cluster">
<title>cluster_BartStatModule</title>
<polygon fill="none" stroke="black" stroke-dasharray="1,5" points="8,-32.8 8,-157.8 342,-157.8 342,-32.8 8,-32.8"/>
</g>
<g id="clust2" class="cluster">
<title>cluster_BartStatModule_declarations</title>
<polygon fill="none" stroke="black" points="190,-40.8 190,-92.8 334,-92.8 334,-40.8 190,-40.8"/>
</g>
<g id="clust4" class="cluster">
<title>cluster_BartStatModule_imports</title>
<polygon fill="none" stroke="black" points="16,-40.8 16,-92.8 182,-92.8 182,-40.8 16,-40.8"/>
</g>
<!-- BartStatComponent -->
<g id="node1" class="node">
<title>BartStatComponent</title>
<polygon fill="#ffffb3" stroke="black" points="325.71,-84.8 198.29,-84.8 198.29,-48.8 325.71,-48.8 325.71,-84.8"/>
<text text-anchor="middle" x="262" y="-62.6" font-family="Times,serif" font-size="14.00">BartStatComponent</text>
</g>
<!-- BartStatModule -->
<g id="node2" class="node">
<title>BartStatModule</title>
<polygon fill="#8dd3c7" stroke="black" points="232.93,-149.8 229.93,-153.8 208.93,-153.8 205.93,-149.8 127.07,-149.8 127.07,-113.8 232.93,-113.8 232.93,-149.8"/>
<text text-anchor="middle" x="180" y="-127.6" font-family="Times,serif" font-size="14.00">BartStatModule</text>
</g>
<!-- BartStatComponent&#45;&gt;BartStatModule -->
<g id="edge1" class="edge">
<title>BartStatComponent&#45;&gt;BartStatModule</title>
<path fill="none" stroke="black" d="M215.55,-84.91C215.55,-84.91 215.55,-103.79 215.55,-103.79"/>
<polygon fill="black" stroke="black" points="212.05,-103.79 215.55,-113.79 219.05,-103.79 212.05,-103.79"/>
</g>
<!-- BartStatRoutingModule -->
<g id="node3" class="node">
<title>BartStatRoutingModule</title>
<polygon fill="#8dd3c7" stroke="black" points="174.05,-84.8 171.05,-88.8 150.05,-88.8 147.05,-84.8 23.95,-84.8 23.95,-48.8 174.05,-48.8 174.05,-84.8"/>
<text text-anchor="middle" x="99" y="-62.6" font-family="Times,serif" font-size="14.00">BartStatRoutingModule</text>
</g>
<!-- BartStatRoutingModule&#45;&gt;BartStatModule -->
<g id="edge2" class="edge">
<title>BartStatRoutingModule&#45;&gt;BartStatModule</title>
<path fill="none" stroke="black" d="M150.78,-84.91C150.78,-84.91 150.78,-103.79 150.78,-103.79"/>
<polygon fill="black" stroke="black" points="147.28,-103.79 150.78,-113.79 154.28,-103.79 147.28,-103.79"/>
</g>
</g>
</svg>
