<?xml version="1.0" encoding="UTF-8" standalone="no"?>
<!DOCTYPE svg PUBLIC "-//W3C//DTD SVG 1.1//EN"
 "http://www.w3.org/Graphics/SVG/1.1/DTD/svg11.dtd">
<!-- Generated by graphviz version 2.47.3 (20210619.1520)
 -->
<!-- Title: dependencies Pages: 1 -->
<svg width="460pt" height="174pt"
 viewBox="0.00 0.00 460.00 173.80" xmlns="http://www.w3.org/2000/svg" xmlns:xlink="http://www.w3.org/1999/xlink">
<g id="graph0" class="graph" transform="scale(1 1) rotate(0) translate(4 169.8)">
<title>dependencies</title>
<polygon fill="white" stroke="transparent" points="-4,4 -4,-169.8 456,-169.8 456,4 -4,4"/>
<text text-anchor="middle" x="226" y="-8.2" font-family="sans-serif" font-size="14.00">dependencies</text>
<g id="clust1" class="cluster">
<title>cluster_WcstModule</title>
<polygon fill="none" stroke="black" stroke-dasharray="1,5" points="8,-32.8 8,-157.8 444,-157.8 444,-32.8 8,-32.8"/>
</g>
<g id="clust5" class="cluster">
<title>cluster_WcstModule_imports</title>
<polygon fill="none" stroke="black" points="286,-40.8 286,-92.8 436,-92.8 436,-40.8 286,-40.8"/>
</g>
<g id="clust2" class="cluster">
<title>cluster_WcstModule_declarations</title>
<polygon fill="none" stroke="black" points="16,-40.8 16,-92.8 278,-92.8 278,-40.8 16,-40.8"/>
</g>
<!-- ResultComponent -->
<g id="node1" class="node">
<title>ResultComponent</title>
<polygon fill="#ffffb3" stroke="black" points="269.61,-84.8 152.39,-84.8 152.39,-48.8 269.61,-48.8 269.61,-84.8"/>
<text text-anchor="middle" x="211" y="-62.6" font-family="Times,serif" font-size="14.00">ResultComponent</text>
</g>
<!-- WcstModule -->
<g id="node3" class="node">
<title>WcstModule</title>
<polygon fill="#8dd3c7" stroke="black" points="255.31,-149.8 252.31,-153.8 231.31,-153.8 228.31,-149.8 166.69,-149.8 166.69,-113.8 255.31,-113.8 255.31,-149.8"/>
<text text-anchor="middle" x="211" y="-127.6" font-family="Times,serif" font-size="14.00">WcstModule</text>
</g>
<!-- ResultComponent&#45;&gt;WcstModule -->
<g id="edge1" class="edge">
<title>ResultComponent&#45;&gt;WcstModule</title>
<path fill="none" stroke="black" d="M211,-84.91C211,-84.91 211,-103.79 211,-103.79"/>
<polygon fill="black" stroke="black" points="207.5,-103.79 211,-113.79 214.5,-103.79 207.5,-103.79"/>
</g>
<!-- WcstComponent -->
<g id="node2" class="node">
<title>WcstComponent</title>
<polygon fill="#ffffb3" stroke="black" points="134.1,-84.8 23.9,-84.8 23.9,-48.8 134.1,-48.8 134.1,-84.8"/>
<text text-anchor="middle" x="79" y="-62.6" font-family="Times,serif" font-size="14.00">WcstComponent</text>
</g>
<!-- WcstComponent&#45;&gt;WcstModule -->
<g id="edge2" class="edge">
<title>WcstComponent&#45;&gt;WcstModule</title>
<path fill="none" stroke="black" d="M79,-84.91C79,-104.14 79,-131.8 79,-131.8 79,-131.8 156.68,-131.8 156.68,-131.8"/>
<polygon fill="black" stroke="black" points="156.68,-135.3 166.68,-131.8 156.68,-128.3 156.68,-135.3"/>
</g>
<!-- WcstRoutingModule -->
<g id="node4" class="node">
<title>WcstRoutingModule</title>
<polygon fill="#8dd3c7" stroke="black" points="427.93,-84.8 424.93,-88.8 403.93,-88.8 400.93,-84.8 294.07,-84.8 294.07,-48.8 427.93,-48.8 427.93,-84.8"/>
<text text-anchor="middle" x="361" y="-62.6" font-family="Times,serif" font-size="14.00">WcstRoutingModule</text>
</g>
<!-- WcstRoutingModule&#45;&gt;WcstModule -->
<g id="edge3" class="edge">
<title>WcstRoutingModule&#45;&gt;WcstModule</title>
<path fill="none" stroke="black" d="M361,-84.91C361,-104.14 361,-131.8 361,-131.8 361,-131.8 265.19,-131.8 265.19,-131.8"/>
<polygon fill="black" stroke="black" points="265.19,-128.3 255.19,-131.8 265.19,-135.3 265.19,-128.3"/>
</g>
</g>
</svg>
