<?xml version="1.0" encoding="UTF-8" standalone="no"?>
<!DOCTYPE svg PUBLIC "-//W3C//DTD SVG 1.1//EN"
 "http://www.w3.org/Graphics/SVG/1.1/DTD/svg11.dtd">
<!-- Generated by graphviz version 2.47.3 (20210619.1520)
 -->
<!-- Title: dependencies Pages: 1 -->
<svg width="408pt" height="174pt"
 viewBox="0.00 0.00 408.00 173.80" xmlns="http://www.w3.org/2000/svg" xmlns:xlink="http://www.w3.org/1999/xlink">
<g id="graph0" class="graph" transform="scale(1 1) rotate(0) translate(4 169.8)">
<title>dependencies</title>
<polygon fill="white" stroke="transparent" points="-4,4 -4,-169.8 404,-169.8 404,4 -4,4"/>
<text text-anchor="middle" x="200" y="-8.2" font-family="sans-serif" font-size="14.00">dependencies</text>
<g id="clust1" class="cluster">
<title>cluster_NavstatisticsModule</title>
<polygon fill="none" stroke="black" stroke-dasharray="1,5" points="8,-32.8 8,-157.8 392,-157.8 392,-32.8 8,-32.8"/>
</g>
<g id="clust2" class="cluster">
<title>cluster_NavstatisticsModule_declarations</title>
<polygon fill="none" stroke="black" points="216,-40.8 216,-92.8 384,-92.8 384,-40.8 216,-40.8"/>
</g>
<g id="clust4" class="cluster">
<title>cluster_NavstatisticsModule_imports</title>
<polygon fill="none" stroke="black" points="16,-40.8 16,-92.8 208,-92.8 208,-40.8 16,-40.8"/>
</g>
<!-- NavstatisticsComponent -->
<g id="node1" class="node">
<title>NavstatisticsComponent</title>
<polygon fill="#ffffb3" stroke="black" points="376.37,-84.8 223.63,-84.8 223.63,-48.8 376.37,-48.8 376.37,-84.8"/>
<text text-anchor="middle" x="300" y="-62.6" font-family="Times,serif" font-size="14.00">NavstatisticsComponent</text>
</g>
<!-- NavstatisticsModule -->
<g id="node2" class="node">
<title>NavstatisticsModule</title>
<polygon fill="#8dd3c7" stroke="black" points="271.59,-149.8 268.59,-153.8 247.59,-153.8 244.59,-149.8 140.41,-149.8 140.41,-113.8 271.59,-113.8 271.59,-149.8"/>
<text text-anchor="middle" x="206" y="-127.6" font-family="Times,serif" font-size="14.00">NavstatisticsModule</text>
</g>
<!-- NavstatisticsComponent&#45;&gt;NavstatisticsModule -->
<g id="edge1" class="edge">
<title>NavstatisticsComponent&#45;&gt;NavstatisticsModule</title>
<path fill="none" stroke="black" d="M247.55,-84.91C247.55,-84.91 247.55,-103.79 247.55,-103.79"/>
<polygon fill="black" stroke="black" points="244.05,-103.79 247.55,-113.79 251.05,-103.79 244.05,-103.79"/>
</g>
<!-- NavstatisticsRoutingModule -->
<g id="node3" class="node">
<title>NavstatisticsRoutingModule</title>
<polygon fill="#8dd3c7" stroke="black" points="200.2,-84.8 197.2,-88.8 176.2,-88.8 173.2,-84.8 23.8,-84.8 23.8,-48.8 200.2,-48.8 200.2,-84.8"/>
<text text-anchor="middle" x="112" y="-62.6" font-family="Times,serif" font-size="14.00">NavstatisticsRoutingModule</text>
</g>
<!-- NavstatisticsRoutingModule&#45;&gt;NavstatisticsModule -->
<g id="edge2" class="edge">
<title>NavstatisticsRoutingModule&#45;&gt;NavstatisticsModule</title>
<path fill="none" stroke="black" d="M170.28,-84.91C170.28,-84.91 170.28,-103.79 170.28,-103.79"/>
<polygon fill="black" stroke="black" points="166.78,-103.79 170.28,-113.79 173.78,-103.79 166.78,-103.79"/>
</g>
</g>
</svg>
