<?xml version="1.0" encoding="UTF-8" standalone="no"?>
<!DOCTYPE svg PUBLIC "-//W3C//DTD SVG 1.1//EN"
 "http://www.w3.org/Graphics/SVG/1.1/DTD/svg11.dtd">
<!-- Generated by graphviz version 2.47.3 (20210619.1520)
 -->
<!-- Title: dependencies Pages: 1 -->
<svg width="491pt" height="174pt"
 viewBox="0.00 0.00 491.00 173.80" xmlns="http://www.w3.org/2000/svg" xmlns:xlink="http://www.w3.org/1999/xlink">
<g id="graph0" class="graph" transform="scale(1 1) rotate(0) translate(4 169.8)">
<title>dependencies</title>
<polygon fill="white" stroke="transparent" points="-4,4 -4,-169.8 487,-169.8 487,4 -4,4"/>
<text text-anchor="middle" x="241.5" y="-8.2" font-family="sans-serif" font-size="14.00">dependencies</text>
<g id="clust1" class="cluster">
<title>cluster_IowaModule</title>
<polygon fill="none" stroke="black" stroke-dasharray="1,5" points="8,-32.8 8,-157.8 475,-157.8 475,-32.8 8,-32.8"/>
</g>
<g id="clust2" class="cluster">
<title>cluster_IowaModule_declarations</title>
<polygon fill="none" stroke="black" points="172,-40.8 172,-92.8 467,-92.8 467,-40.8 172,-40.8"/>
</g>
<g id="clust5" class="cluster">
<title>cluster_IowaModule_imports</title>
<polygon fill="none" stroke="black" points="16,-40.8 16,-92.8 164,-92.8 164,-40.8 16,-40.8"/>
</g>
<!-- EndquestionComponent -->
<g id="node1" class="node">
<title>EndquestionComponent</title>
<polygon fill="#ffffb3" stroke="black" points="458.83,-84.8 307.17,-84.8 307.17,-48.8 458.83,-48.8 458.83,-84.8"/>
<text text-anchor="middle" x="383" y="-62.6" font-family="Times,serif" font-size="14.00">EndquestionComponent</text>
</g>
<!-- IowaModule -->
<g id="node3" class="node">
<title>IowaModule</title>
<polygon fill="#8dd3c7" stroke="black" points="278.53,-149.8 275.53,-153.8 254.53,-153.8 251.53,-149.8 191.47,-149.8 191.47,-113.8 278.53,-113.8 278.53,-149.8"/>
<text text-anchor="middle" x="235" y="-127.6" font-family="Times,serif" font-size="14.00">IowaModule</text>
</g>
<!-- EndquestionComponent&#45;&gt;IowaModule -->
<g id="edge1" class="edge">
<title>EndquestionComponent&#45;&gt;IowaModule</title>
<path fill="none" stroke="black" d="M383,-84.91C383,-104.14 383,-131.8 383,-131.8 383,-131.8 288.6,-131.8 288.6,-131.8"/>
<polygon fill="black" stroke="black" points="288.6,-128.3 278.6,-131.8 288.6,-135.3 288.6,-128.3"/>
</g>
<!-- IowaComponent -->
<g id="node2" class="node">
<title>IowaComponent</title>
<polygon fill="#ffffb3" stroke="black" points="289.81,-84.8 180.19,-84.8 180.19,-48.8 289.81,-48.8 289.81,-84.8"/>
<text text-anchor="middle" x="235" y="-62.6" font-family="Times,serif" font-size="14.00">IowaComponent</text>
</g>
<!-- IowaComponent&#45;&gt;IowaModule -->
<g id="edge2" class="edge">
<title>IowaComponent&#45;&gt;IowaModule</title>
<path fill="none" stroke="black" d="M235,-84.91C235,-84.91 235,-103.79 235,-103.79"/>
<polygon fill="black" stroke="black" points="231.5,-103.79 235,-113.79 238.5,-103.79 231.5,-103.79"/>
</g>
<!-- IowaRoutingModule -->
<g id="node4" class="node">
<title>IowaRoutingModule</title>
<polygon fill="#8dd3c7" stroke="black" points="156.15,-84.8 153.15,-88.8 132.15,-88.8 129.15,-84.8 23.85,-84.8 23.85,-48.8 156.15,-48.8 156.15,-84.8"/>
<text text-anchor="middle" x="90" y="-62.6" font-family="Times,serif" font-size="14.00">IowaRoutingModule</text>
</g>
<!-- IowaRoutingModule&#45;&gt;IowaModule -->
<g id="edge3" class="edge">
<title>IowaRoutingModule&#45;&gt;IowaModule</title>
<path fill="none" stroke="black" d="M90,-84.91C90,-104.14 90,-131.8 90,-131.8 90,-131.8 181.1,-131.8 181.1,-131.8"/>
<polygon fill="black" stroke="black" points="181.1,-135.3 191.1,-131.8 181.1,-128.3 181.1,-135.3"/>
</g>
</g>
</svg>
