<?xml version="1.0" encoding="UTF-8" standalone="no"?>
<!DOCTYPE svg PUBLIC "-//W3C//DTD SVG 1.1//EN"
 "http://www.w3.org/Graphics/SVG/1.1/DTD/svg11.dtd">
<!-- Generated by graphviz version 2.47.3 (20210619.1520)
 -->
<!-- Title: dependencies Pages: 1 -->
<svg width="314pt" height="174pt"
 viewBox="0.00 0.00 314.00 173.80" xmlns="http://www.w3.org/2000/svg" xmlns:xlink="http://www.w3.org/1999/xlink">
<g id="graph0" class="graph" transform="scale(1 1) rotate(0) translate(4 169.8)">
<title>dependencies</title>
<polygon fill="white" stroke="transparent" points="-4,4 -4,-169.8 310,-169.8 310,4 -4,4"/>
<text text-anchor="middle" x="153" y="-8.2" font-family="sans-serif" font-size="14.00">dependencies</text>
<g id="clust1" class="cluster">
<title>cluster_BartModule</title>
<polygon fill="none" stroke="black" stroke-dasharray="1,5" points="8,-32.8 8,-157.8 298,-157.8 298,-32.8 8,-32.8"/>
</g>
<g id="clust4" class="cluster">
<title>cluster_BartModule_imports</title>
<polygon fill="none" stroke="black" points="146,-40.8 146,-92.8 290,-92.8 290,-40.8 146,-40.8"/>
</g>
<g id="clust2" class="cluster">
<title>cluster_BartModule_declarations</title>
<polygon fill="none" stroke="black" points="16,-40.8 16,-92.8 138,-92.8 138,-40.8 16,-40.8"/>
</g>
<!-- BartComponent -->
<g id="node1" class="node">
<title>BartComponent</title>
<polygon fill="#ffffb3" stroke="black" points="129.94,-84.8 24.06,-84.8 24.06,-48.8 129.94,-48.8 129.94,-84.8"/>
<text text-anchor="middle" x="77" y="-62.6" font-family="Times,serif" font-size="14.00">BartComponent</text>
</g>
<!-- BartModule -->
<g id="node2" class="node">
<title>BartModule</title>
<polygon fill="#8dd3c7" stroke="black" points="188.65,-149.8 185.65,-153.8 164.65,-153.8 161.65,-149.8 105.35,-149.8 105.35,-113.8 188.65,-113.8 188.65,-149.8"/>
<text text-anchor="middle" x="147" y="-127.6" font-family="Times,serif" font-size="14.00">BartModule</text>
</g>
<!-- BartComponent&#45;&gt;BartModule -->
<g id="edge1" class="edge">
<title>BartComponent&#45;&gt;BartModule</title>
<path fill="none" stroke="black" d="M117.45,-84.91C117.45,-84.91 117.45,-103.79 117.45,-103.79"/>
<polygon fill="black" stroke="black" points="113.95,-103.79 117.45,-113.79 120.95,-103.79 113.95,-103.79"/>
</g>
<!-- BartRoutingModule -->
<g id="node3" class="node">
<title>BartRoutingModule</title>
<polygon fill="#8dd3c7" stroke="black" points="282.27,-84.8 279.27,-88.8 258.27,-88.8 255.27,-84.8 153.73,-84.8 153.73,-48.8 282.27,-48.8 282.27,-84.8"/>
<text text-anchor="middle" x="218" y="-62.6" font-family="Times,serif" font-size="14.00">BartRoutingModule</text>
</g>
<!-- BartRoutingModule&#45;&gt;BartModule -->
<g id="edge2" class="edge">
<title>BartRoutingModule&#45;&gt;BartModule</title>
<path fill="none" stroke="black" d="M171.22,-84.91C171.22,-84.91 171.22,-103.79 171.22,-103.79"/>
<polygon fill="black" stroke="black" points="167.72,-103.79 171.22,-113.79 174.72,-103.79 167.72,-103.79"/>
</g>
</g>
</svg>
