<?xml version="1.0" encoding="UTF-8" standalone="no"?>
<!DOCTYPE svg PUBLIC "-//W3C//DTD SVG 1.1//EN"
 "http://www.w3.org/Graphics/SVG/1.1/DTD/svg11.dtd">
<!-- Generated by graphviz version 2.47.3 (20210619.1520)
 -->
<!-- Title: dependencies Pages: 1 -->
<svg width="598pt" height="247pt"
 viewBox="0.00 0.00 598.00 246.80" xmlns="http://www.w3.org/2000/svg" xmlns:xlink="http://www.w3.org/1999/xlink">
<g id="graph0" class="graph" transform="scale(1 1) rotate(0) translate(4 242.8)">
<title>dependencies</title>
<polygon fill="white" stroke="transparent" points="-4,4 -4,-242.8 594,-242.8 594,4 -4,4"/>
<text text-anchor="middle" x="295" y="-8.2" font-family="sans-serif" font-size="14.00">dependencies</text>
<g id="clust1" class="cluster">
<title>cluster_HomeModule</title>
<polygon fill="none" stroke="black" stroke-dasharray="1,5" points="8,-32.8 8,-230.8 582,-230.8 582,-32.8 8,-32.8"/>
</g>
<g id="clust2" class="cluster">
<title>cluster_HomeModule_declarations</title>
<polygon fill="none" stroke="black" points="442,-40.8 442,-92.8 574,-92.8 574,-40.8 442,-40.8"/>
</g>
<g id="clust5" class="cluster">
<title>cluster_HomeModule_exports</title>
<polygon fill="none" stroke="black" points="206,-170.8 206,-222.8 342,-222.8 342,-170.8 206,-170.8"/>
</g>
<g id="clust4" class="cluster">
<title>cluster_HomeModule_imports</title>
<polygon fill="none" stroke="black" points="16,-40.8 16,-92.8 434,-92.8 434,-40.8 16,-40.8"/>
</g>
<!-- HomeComponent -->
<g id="node1" class="node">
<title>HomeComponent</title>
<polygon fill="#ffffb3" stroke="black" points="565.55,-84.8 450.45,-84.8 450.45,-48.8 565.55,-48.8 565.55,-84.8"/>
<text text-anchor="middle" x="508" y="-62.6" font-family="Times,serif" font-size="14.00">HomeComponent</text>
</g>
<!-- HomeModule -->
<g id="node2" class="node">
<title>HomeModule</title>
<polygon fill="#8dd3c7" stroke="black" points="320.76,-149.8 317.76,-153.8 296.76,-153.8 293.76,-149.8 227.24,-149.8 227.24,-113.8 320.76,-113.8 320.76,-149.8"/>
<text text-anchor="middle" x="274" y="-127.6" font-family="Times,serif" font-size="14.00">HomeModule</text>
</g>
<!-- HomeComponent&#45;&gt;HomeModule -->
<g id="edge1" class="edge">
<title>HomeComponent&#45;&gt;HomeModule</title>
<path fill="none" stroke="black" d="M508,-84.91C508,-104.14 508,-131.8 508,-131.8 508,-131.8 330.79,-131.8 330.79,-131.8"/>
<polygon fill="black" stroke="black" points="330.79,-128.3 320.79,-131.8 330.79,-135.3 330.79,-128.3"/>
</g>
<!-- HomeComponent  -->
<g id="node6" class="node">
<title>HomeComponent </title>
<polygon fill="#fb8072" stroke="black" points="333.54,-214.8 214.46,-214.8 214.46,-178.8 333.54,-178.8 333.54,-214.8"/>
<text text-anchor="middle" x="274" y="-192.6" font-family="Times,serif" font-size="14.00">HomeComponent </text>
</g>
<!-- HomeModule&#45;&gt;HomeComponent  -->
<g id="edge5" class="edge">
<title>HomeModule&#45;&gt;HomeComponent </title>
<path fill="none" stroke="black" stroke-dasharray="5,2" d="M274,-149.91C274,-149.91 274,-168.79 274,-168.79"/>
<polygon fill="black" stroke="black" points="270.5,-168.79 274,-178.79 277.5,-168.79 270.5,-168.79"/>
</g>
<!-- HeaderToolbarModule -->
<g id="node3" class="node">
<title>HeaderToolbarModule</title>
<polygon fill="#8dd3c7" stroke="black" points="426.28,-84.8 423.28,-88.8 402.28,-88.8 399.28,-84.8 281.72,-84.8 281.72,-48.8 426.28,-48.8 426.28,-84.8"/>
<text text-anchor="middle" x="354" y="-62.6" font-family="Times,serif" font-size="14.00">HeaderToolbarModule</text>
</g>
<!-- HeaderToolbarModule&#45;&gt;HomeModule -->
<g id="edge2" class="edge">
<title>HeaderToolbarModule&#45;&gt;HomeModule</title>
<path fill="none" stroke="black" d="M301.37,-84.91C301.37,-84.91 301.37,-103.79 301.37,-103.79"/>
<polygon fill="black" stroke="black" points="297.87,-103.79 301.37,-113.79 304.87,-103.79 297.87,-103.79"/>
</g>
<!-- HomeRoutingModule -->
<g id="node4" class="node">
<title>HomeRoutingModule</title>
<polygon fill="#8dd3c7" stroke="black" points="263.38,-84.8 260.38,-88.8 239.38,-88.8 236.38,-84.8 124.62,-84.8 124.62,-48.8 263.38,-48.8 263.38,-84.8"/>
<text text-anchor="middle" x="194" y="-62.6" font-family="Times,serif" font-size="14.00">HomeRoutingModule</text>
</g>
<!-- HomeRoutingModule&#45;&gt;HomeModule -->
<g id="edge3" class="edge">
<title>HomeRoutingModule&#45;&gt;HomeModule</title>
<path fill="none" stroke="black" d="M245.28,-84.91C245.28,-84.91 245.28,-103.79 245.28,-103.79"/>
<polygon fill="black" stroke="black" points="241.78,-103.79 245.28,-113.79 248.78,-103.79 241.78,-103.79"/>
</g>
<!-- NavModule -->
<g id="node5" class="node">
<title>NavModule</title>
<polygon fill="#8dd3c7" stroke="black" points="106.37,-84.8 103.37,-88.8 82.37,-88.8 79.37,-84.8 23.63,-84.8 23.63,-48.8 106.37,-48.8 106.37,-84.8"/>
<text text-anchor="middle" x="65" y="-62.6" font-family="Times,serif" font-size="14.00">NavModule</text>
</g>
<!-- NavModule&#45;&gt;HomeModule -->
<g id="edge4" class="edge">
<title>NavModule&#45;&gt;HomeModule</title>
<path fill="none" stroke="black" d="M65,-84.91C65,-104.14 65,-131.8 65,-131.8 65,-131.8 217.1,-131.8 217.1,-131.8"/>
<polygon fill="black" stroke="black" points="217.1,-135.3 227.1,-131.8 217.1,-128.3 217.1,-135.3"/>
</g>
</g>
</svg>
