<?xml version="1.0" encoding="UTF-8" standalone="no"?>
<!DOCTYPE svg PUBLIC "-//W3C//DTD SVG 1.1//EN"
 "http://www.w3.org/Graphics/SVG/1.1/DTD/svg11.dtd">
<!-- Generated by graphviz version 2.47.3 (20210619.1520)
 -->
<!-- Title: dependencies Pages: 1 -->
<svg width="415pt" height="247pt"
 viewBox="0.00 0.00 415.00 246.80" xmlns="http://www.w3.org/2000/svg" xmlns:xlink="http://www.w3.org/1999/xlink">
<g id="graph0" class="graph" transform="scale(1 1) rotate(0) translate(4 242.8)">
<title>dependencies</title>
<polygon fill="white" stroke="transparent" points="-4,4 -4,-242.8 411,-242.8 411,4 -4,4"/>
<text text-anchor="middle" x="203.5" y="-8.2" font-family="sans-serif" font-size="14.00">dependencies</text>
<g id="clust1" class="cluster">
<title>cluster_AppModule</title>
<polygon fill="none" stroke="black" stroke-dasharray="1,5" points="8,-32.8 8,-230.8 399,-230.8 399,-32.8 8,-32.8"/>
</g>
<g id="clust2" class="cluster">
<title>cluster_AppModule_declarations</title>
<polygon fill="none" stroke="black" points="269,-40.8 269,-92.8 391,-92.8 391,-40.8 269,-40.8"/>
</g>
<g id="clust4" class="cluster">
<title>cluster_AppModule_imports</title>
<polygon fill="none" stroke="black" points="16,-40.8 16,-92.8 261,-92.8 261,-40.8 16,-40.8"/>
</g>
<g id="clust6" class="cluster">
<title>cluster_AppModule_bootstrap</title>
<polygon fill="none" stroke="black" points="127,-170.8 127,-222.8 251,-222.8 251,-170.8 127,-170.8"/>
</g>
<!-- AppComponent -->
<g id="node1" class="node">
<title>AppComponent</title>
<polygon fill="#ffffb3" stroke="black" points="382.94,-84.8 277.06,-84.8 277.06,-48.8 382.94,-48.8 382.94,-84.8"/>
<text text-anchor="middle" x="330" y="-62.6" font-family="Times,serif" font-size="14.00">AppComponent</text>
</g>
<!-- AppModule -->
<g id="node2" class="node">
<title>AppModule</title>
<polygon fill="#8dd3c7" stroke="black" points="230.66,-149.8 227.66,-153.8 206.66,-153.8 203.66,-149.8 147.34,-149.8 147.34,-113.8 230.66,-113.8 230.66,-149.8"/>
<text text-anchor="middle" x="189" y="-127.6" font-family="Times,serif" font-size="14.00">AppModule</text>
</g>
<!-- AppComponent&#45;&gt;AppModule -->
<g id="edge1" class="edge">
<title>AppComponent&#45;&gt;AppModule</title>
<path fill="none" stroke="black" d="M330,-84.91C330,-104.14 330,-131.8 330,-131.8 330,-131.8 240.92,-131.8 240.92,-131.8"/>
<polygon fill="black" stroke="black" points="240.92,-128.3 230.92,-131.8 240.92,-135.3 240.92,-128.3"/>
</g>
<!-- AppComponent  -->
<g id="node5" class="node">
<title>AppComponent </title>
<polygon fill="#80b1d3" stroke="black" points="243.44,-214.8 134.56,-214.8 134.56,-178.8 243.44,-178.8 243.44,-214.8"/>
<text text-anchor="middle" x="189" y="-192.6" font-family="Times,serif" font-size="14.00">AppComponent </text>
</g>
<!-- AppModule&#45;&gt;AppComponent  -->
<g id="edge4" class="edge">
<title>AppModule&#45;&gt;AppComponent </title>
<path fill="none" stroke="black" stroke-dasharray="1,5" d="M189,-149.91C189,-149.91 189,-168.79 189,-168.79"/>
<polygon fill="black" stroke="black" points="185.5,-168.79 189,-178.79 192.5,-168.79 185.5,-168.79"/>
</g>
<!-- AppRoutingModule -->
<g id="node3" class="node">
<title>AppRoutingModule</title>
<polygon fill="#8dd3c7" stroke="black" points="253.27,-84.8 250.27,-88.8 229.27,-88.8 226.27,-84.8 124.73,-84.8 124.73,-48.8 253.27,-48.8 253.27,-84.8"/>
<text text-anchor="middle" x="189" y="-62.6" font-family="Times,serif" font-size="14.00">AppRoutingModule</text>
</g>
<!-- AppRoutingModule&#45;&gt;AppModule -->
<g id="edge2" class="edge">
<title>AppRoutingModule&#45;&gt;AppModule</title>
<path fill="none" stroke="black" d="M189,-84.91C189,-84.91 189,-103.79 189,-103.79"/>
<polygon fill="black" stroke="black" points="185.5,-103.79 189,-113.79 192.5,-103.79 185.5,-103.79"/>
</g>
<!-- NavModule -->
<g id="node4" class="node">
<title>NavModule</title>
<polygon fill="#8dd3c7" stroke="black" points="106.37,-84.8 103.37,-88.8 82.37,-88.8 79.37,-84.8 23.63,-84.8 23.63,-48.8 106.37,-48.8 106.37,-84.8"/>
<text text-anchor="middle" x="65" y="-62.6" font-family="Times,serif" font-size="14.00">NavModule</text>
</g>
<!-- NavModule&#45;&gt;AppModule -->
<g id="edge3" class="edge">
<title>NavModule&#45;&gt;AppModule</title>
<path fill="none" stroke="black" d="M65,-84.91C65,-104.14 65,-131.8 65,-131.8 65,-131.8 137.02,-131.8 137.02,-131.8"/>
<polygon fill="black" stroke="black" points="137.02,-135.3 147.02,-131.8 137.02,-128.3 137.02,-135.3"/>
</g>
</g>
</svg>
