<?xml version="1.0" encoding="UTF-8" standalone="no"?>
<!DOCTYPE svg PUBLIC "-//W3C//DTD SVG 1.1//EN"
 "http://www.w3.org/Graphics/SVG/1.1/DTD/svg11.dtd">
<!-- Generated by graphviz version 2.47.3 (20210619.1520)
 -->
<!-- Title: dependencies Pages: 1 -->
<svg width="376pt" height="174pt"
 viewBox="0.00 0.00 376.00 173.80" xmlns="http://www.w3.org/2000/svg" xmlns:xlink="http://www.w3.org/1999/xlink">
<g id="graph0" class="graph" transform="scale(1 1) rotate(0) translate(4 169.8)">
<title>dependencies</title>
<polygon fill="white" stroke="transparent" points="-4,4 -4,-169.8 372,-169.8 372,4 -4,4"/>
<text text-anchor="middle" x="184" y="-8.2" font-family="sans-serif" font-size="14.00">dependencies</text>
<g id="clust1" class="cluster">
<title>cluster_DiagramsModule</title>
<polygon fill="none" stroke="black" stroke-dasharray="1,5" points="8,-32.8 8,-157.8 360,-157.8 360,-32.8 8,-32.8"/>
</g>
<g id="clust2" class="cluster">
<title>cluster_DiagramsModule_declarations</title>
<polygon fill="none" stroke="black" points="200,-40.8 200,-92.8 352,-92.8 352,-40.8 200,-40.8"/>
</g>
<g id="clust4" class="cluster">
<title>cluster_DiagramsModule_imports</title>
<polygon fill="none" stroke="black" points="16,-40.8 16,-92.8 192,-92.8 192,-40.8 16,-40.8"/>
</g>
<!-- DiagramsComponent -->
<g id="node1" class="node">
<title>DiagramsComponent</title>
<polygon fill="#ffffb3" stroke="black" points="343.75,-84.8 208.25,-84.8 208.25,-48.8 343.75,-48.8 343.75,-84.8"/>
<text text-anchor="middle" x="276" y="-62.6" font-family="Times,serif" font-size="14.00">DiagramsComponent</text>
</g>
<!-- DiagramsModule -->
<g id="node2" class="node">
<title>DiagramsModule</title>
<polygon fill="#8dd3c7" stroke="black" points="246.97,-149.8 243.97,-153.8 222.97,-153.8 219.97,-149.8 133.03,-149.8 133.03,-113.8 246.97,-113.8 246.97,-149.8"/>
<text text-anchor="middle" x="190" y="-127.6" font-family="Times,serif" font-size="14.00">DiagramsModule</text>
</g>
<!-- DiagramsComponent&#45;&gt;DiagramsModule -->
<g id="edge1" class="edge">
<title>DiagramsComponent&#45;&gt;DiagramsModule</title>
<path fill="none" stroke="black" d="M227.55,-84.91C227.55,-84.91 227.55,-103.79 227.55,-103.79"/>
<polygon fill="black" stroke="black" points="224.05,-103.79 227.55,-113.79 231.05,-103.79 224.05,-103.79"/>
</g>
<!-- DiagramsRoutingModule -->
<g id="node3" class="node">
<title>DiagramsRoutingModule</title>
<polygon fill="#8dd3c7" stroke="black" points="183.59,-84.8 180.59,-88.8 159.59,-88.8 156.59,-84.8 24.41,-84.8 24.41,-48.8 183.59,-48.8 183.59,-84.8"/>
<text text-anchor="middle" x="104" y="-62.6" font-family="Times,serif" font-size="14.00">DiagramsRoutingModule</text>
</g>
<!-- DiagramsRoutingModule&#45;&gt;DiagramsModule -->
<g id="edge2" class="edge">
<title>DiagramsRoutingModule&#45;&gt;DiagramsModule</title>
<path fill="none" stroke="black" d="M158.28,-84.91C158.28,-84.91 158.28,-103.79 158.28,-103.79"/>
<polygon fill="black" stroke="black" points="154.78,-103.79 158.28,-113.79 161.78,-103.79 154.78,-103.79"/>
</g>
</g>
</svg>
