<?xml version="1.0" encoding="UTF-8" standalone="no"?>
<!DOCTYPE svg PUBLIC "-//W3C//DTD SVG 1.1//EN"
 "http://www.w3.org/Graphics/SVG/1.1/DTD/svg11.dtd">
<!-- Generated by graphviz version 2.47.3 (20210619.1520)
 -->
<!-- Title: dependencies Pages: 1 -->
<svg width="416pt" height="174pt"
 viewBox="0.00 0.00 416.00 173.80" xmlns="http://www.w3.org/2000/svg" xmlns:xlink="http://www.w3.org/1999/xlink">
<g id="graph0" class="graph" transform="scale(1 1) rotate(0) translate(4 169.8)">
<title>dependencies</title>
<polygon fill="white" stroke="transparent" points="-4,4 -4,-169.8 412,-169.8 412,4 -4,4"/>
<text text-anchor="middle" x="204" y="-8.2" font-family="sans-serif" font-size="14.00">dependencies</text>
<g id="clust1" class="cluster">
<title>cluster_SplashScreenModule</title>
<polygon fill="none" stroke="black" stroke-dasharray="1,5" points="8,-32.8 8,-157.8 400,-157.8 400,-32.8 8,-32.8"/>
</g>
<g id="clust2" class="cluster">
<title>cluster_SplashScreenModule_declarations</title>
<polygon fill="none" stroke="black" points="220,-40.8 220,-92.8 392,-92.8 392,-40.8 220,-40.8"/>
</g>
<g id="clust4" class="cluster">
<title>cluster_SplashScreenModule_imports</title>
<polygon fill="none" stroke="black" points="16,-40.8 16,-92.8 212,-92.8 212,-40.8 16,-40.8"/>
</g>
<!-- SplashScreenComponent -->
<g id="node1" class="node">
<title>SplashScreenComponent</title>
<polygon fill="#ffffb3" stroke="black" points="384.25,-84.8 227.75,-84.8 227.75,-48.8 384.25,-48.8 384.25,-84.8"/>
<text text-anchor="middle" x="306" y="-62.6" font-family="Times,serif" font-size="14.00">SplashScreenComponent</text>
</g>
<!-- SplashScreenModule -->
<g id="node2" class="node">
<title>SplashScreenModule</title>
<polygon fill="#8dd3c7" stroke="black" points="277.47,-149.8 274.47,-153.8 253.47,-153.8 250.47,-149.8 142.53,-149.8 142.53,-113.8 277.47,-113.8 277.47,-149.8"/>
<text text-anchor="middle" x="210" y="-127.6" font-family="Times,serif" font-size="14.00">SplashScreenModule</text>
</g>
<!-- SplashScreenComponent&#45;&gt;SplashScreenModule -->
<g id="edge1" class="edge">
<title>SplashScreenComponent&#45;&gt;SplashScreenModule</title>
<path fill="none" stroke="black" d="M252.55,-84.91C252.55,-84.91 252.55,-103.79 252.55,-103.79"/>
<polygon fill="black" stroke="black" points="249.05,-103.79 252.55,-113.79 256.05,-103.79 249.05,-103.79"/>
</g>
<!-- SplashScreenRoutingModule -->
<g id="node3" class="node">
<title>SplashScreenRoutingModule</title>
<polygon fill="#8dd3c7" stroke="black" points="204.09,-84.8 201.09,-88.8 180.09,-88.8 177.09,-84.8 23.91,-84.8 23.91,-48.8 204.09,-48.8 204.09,-84.8"/>
<text text-anchor="middle" x="114" y="-62.6" font-family="Times,serif" font-size="14.00">SplashScreenRoutingModule</text>
</g>
<!-- SplashScreenRoutingModule&#45;&gt;SplashScreenModule -->
<g id="edge2" class="edge">
<title>SplashScreenRoutingModule&#45;&gt;SplashScreenModule</title>
<path fill="none" stroke="black" d="M173.28,-84.91C173.28,-84.91 173.28,-103.79 173.28,-103.79"/>
<polygon fill="black" stroke="black" points="169.78,-103.79 173.28,-113.79 176.78,-103.79 169.78,-103.79"/>
</g>
</g>
</svg>
