<?xml version="1.0" encoding="UTF-8" standalone="no"?>
<!DOCTYPE svg PUBLIC "-//W3C//DTD SVG 1.1//EN"
 "http://www.w3.org/Graphics/SVG/1.1/DTD/svg11.dtd">
<!-- Generated by graphviz version 2.47.3 (20210619.1520)
 -->
<!-- Title: dependencies Pages: 1 -->
<svg width="400pt" height="174pt"
 viewBox="0.00 0.00 400.00 173.80" xmlns="http://www.w3.org/2000/svg" xmlns:xlink="http://www.w3.org/1999/xlink">
<g id="graph0" class="graph" transform="scale(1 1) rotate(0) translate(4 169.8)">
<title>dependencies</title>
<polygon fill="white" stroke="transparent" points="-4,4 -4,-169.8 396,-169.8 396,4 -4,4"/>
<text text-anchor="middle" x="196" y="-8.2" font-family="sans-serif" font-size="14.00">dependencies</text>
<g id="clust1" class="cluster">
<title>cluster_MentrotStatModule</title>
<polygon fill="none" stroke="black" stroke-dasharray="1,5" points="8,-32.8 8,-157.8 384,-157.8 384,-32.8 8,-32.8"/>
</g>
<g id="clust2" class="cluster">
<title>cluster_MentrotStatModule_declarations</title>
<polygon fill="none" stroke="black" points="212,-40.8 212,-92.8 376,-92.8 376,-40.8 212,-40.8"/>
</g>
<g id="clust4" class="cluster">
<title>cluster_MentrotStatModule_imports</title>
<polygon fill="none" stroke="black" points="16,-40.8 16,-92.8 204,-92.8 204,-40.8 16,-40.8"/>
</g>
<!-- MentrotStatComponent -->
<g id="node1" class="node">
<title>MentrotStatComponent</title>
<polygon fill="#ffffb3" stroke="black" points="368.21,-84.8 219.79,-84.8 219.79,-48.8 368.21,-48.8 368.21,-84.8"/>
<text text-anchor="middle" x="294" y="-62.6" font-family="Times,serif" font-size="14.00">MentrotStatComponent</text>
</g>
<!-- MentrotStatModule -->
<g id="node2" class="node">
<title>MentrotStatModule</title>
<polygon fill="#8dd3c7" stroke="black" points="265.43,-149.8 262.43,-153.8 241.43,-153.8 238.43,-149.8 138.57,-149.8 138.57,-113.8 265.43,-113.8 265.43,-149.8"/>
<text text-anchor="middle" x="202" y="-127.6" font-family="Times,serif" font-size="14.00">MentrotStatModule</text>
</g>
<!-- MentrotStatComponent&#45;&gt;MentrotStatModule -->
<g id="edge1" class="edge">
<title>MentrotStatComponent&#45;&gt;MentrotStatModule</title>
<path fill="none" stroke="black" d="M242.55,-84.91C242.55,-84.91 242.55,-103.79 242.55,-103.79"/>
<polygon fill="black" stroke="black" points="239.05,-103.79 242.55,-113.79 246.05,-103.79 239.05,-103.79"/>
</g>
<!-- MentrotStatRoutingModule -->
<g id="node3" class="node">
<title>MentrotStatRoutingModule</title>
<polygon fill="#8dd3c7" stroke="black" points="195.55,-84.8 192.55,-88.8 171.55,-88.8 168.55,-84.8 24.45,-84.8 24.45,-48.8 195.55,-48.8 195.55,-84.8"/>
<text text-anchor="middle" x="110" y="-62.6" font-family="Times,serif" font-size="14.00">MentrotStatRoutingModule</text>
</g>
<!-- MentrotStatRoutingModule&#45;&gt;MentrotStatModule -->
<g id="edge2" class="edge">
<title>MentrotStatRoutingModule&#45;&gt;MentrotStatModule</title>
<path fill="none" stroke="black" d="M167.28,-84.91C167.28,-84.91 167.28,-103.79 167.28,-103.79"/>
<polygon fill="black" stroke="black" points="163.78,-103.79 167.28,-113.79 170.78,-103.79 163.78,-103.79"/>
</g>
</g>
</svg>
